<svg width="420" height="120" viewBox="0 0 420 120" fill="none" xmlns="http://www.w3.org/2000/svg">
  <rect x="8" y="18" width="84" height="84" rx="26" fill="#07111E" stroke="#FFFFFF" stroke-opacity="0.16"/>
  <path d="M33 79V41H67.5" stroke="#F8FBFF" stroke-width="5" stroke-linecap="round" stroke-linejoin="round"/>
  <path d="M34 77L67.5 41" stroke="#F8FBFF" stroke-width="5" stroke-linecap="round"/>
  <path d="M45 42H67V64" stroke="#F8FBFF" stroke-width="5.6" stroke-linecap="round" stroke-linejoin="round"/>
  <path d="M128 78V40.7H154.7C160.5 40.7 165.2 42.2 168.8 45.2C172.4 48.1 174.2 52.1 174.2 57.2C174.2 62.4 172.4 66.4 168.8 69.3C165.2 72.2 160.5 73.7 154.7 73.7H139.6V78H128ZM139.6 64.4H153C156.2 64.4 158.6 63.8 160.2 62.5C161.9 61.1 162.8 59.4 162.8 57.2C162.8 55.1 161.9 53.4 160.2 52.1C158.6 50.7 156.2 50 153 50H139.6V64.4Z" fill="#F8FBFF"/>
  <path d="M182.7 78V48.7H193.4V54.3C195.2 50.1 199 48 204.7 48H209.4V58.1H203.4C197 58.1 193.8 61.2 193.8 67.4V78H182.7Z" fill="#F8FBFF"/>
  <path d="M235.4 78.7C231.3 78.7 227.6 78.1 224.3 76.8C221 75.5 218.4 73.6 216.3 71.2C214.3 68.7 213.3 65.8 213.3 62.4C213.3 59 214.3 56.1 216.3 53.7C218.4 51.2 221 49.3 224.3 48C227.6 46.7 231.3 46 235.4 46C239.5 46 243.1 46.7 246.4 48C249.8 49.3 252.4 51.2 254.4 53.7C256.5 56.1 257.5 59 257.5 62.4C257.5 65.8 256.5 68.7 254.4 71.2C252.4 73.6 249.8 75.5 246.4 76.8C243.1 78.1 239.5 78.7 235.4 78.7ZM235.4 69.5C238.5 69.5 241.1 68.8 243.1 67.4C245.2 66 246.2 64.3 246.2 62.4C246.2 60.4 245.2 58.7 243.1 57.4C241.1 56 238.5 55.3 235.4 55.3C232.2 55.3 229.6 56 227.5 57.4C225.5 58.7 224.5 60.4 224.5 62.4C224.5 64.3 225.5 66 227.5 67.4C229.6 68.8 232.2 69.5 235.4 69.5Z" fill="#F8FBFF"/>
  <path d="M266.1 78V48.7H276.7V52.4C279.7 48.8 284.3 47 290.7 47C294.5 47 297.7 47.6 300.4 48.8C303.1 50 305.2 51.7 306.6 53.9C308.1 56 308.8 58.6 308.8 61.7V78H297.7V63.2C297.7 60.7 296.8 58.8 294.9 57.5C293.1 56.2 290.7 55.5 287.8 55.5C284.6 55.5 282.1 56.3 280.2 57.9C278.4 59.5 277.5 61.7 277.5 64.4V78H266.1Z" fill="#F8FBFF"/>
  <path d="M328.7 78.7C324.4 78.7 320.6 78.1 317.3 76.9C314 75.6 311.4 73.8 309.4 71.4C307.5 69 306.6 66 306.6 62.5C306.6 59.1 307.5 56.2 309.3 53.8C311.2 51.4 313.8 49.5 316.9 48.2C320.1 46.9 323.7 46.2 327.7 46.2C331.6 46.2 335 46.9 338.1 48.2C341.2 49.4 343.6 51.3 345.4 53.7C347.2 56 348.1 58.8 348.1 62.2V64.8H317.3C317.9 66.6 319.2 68 321.4 69C323.5 70 326 70.5 328.9 70.5C331.4 70.5 333.7 70.2 335.8 69.6C337.9 68.9 339.8 67.9 341.5 66.4L347.4 72.7C345.2 74.7 342.5 76.2 339.2 77.1C336 78.2 332.5 78.7 328.7 78.7ZM317.2 58.8H338.1C337.8 57.6 337.1 56.5 336 55.5C334.9 54.6 333.6 53.9 332 53.4C330.5 52.9 328.8 52.7 327 52.7C325.2 52.7 323.5 52.9 321.9 53.4C320.4 53.9 319.1 54.7 318 55.7C316.9 56.7 316.3 57.7 316.1 58.8H317.2Z" fill="#F8FBFF"/>
  <path d="M355.5 78V48.7H366.2V54.3C368 50.1 371.8 48 377.5 48H382.2V58.1H376.2C369.8 58.1 366.6 61.2 366.6 67.4V78H355.5Z" fill="#F8FBFF"/>
</svg>
